# xmcd
#
# Track frame offsets: 
#        182
#        1222
#        16697
#        31257
#        48067
#        63197
#        82882
#        97120
#        111072
#        125350
#        143107
#        163297
#        175817
#        185910
#        199822
#
# Disc length: 2909 seconds
#
# Revision: 8
# Processed by: cddbd v1.5.2PL0 Copyright (c) Steve Scherf et al.
# Submitted via: ExactAudioCopy v1.0b1
#
DISCID=bc0b5b0f
DTITLE=Various Artists / Schoolhouse Rock Rocks
DYEAR=1996
DGENRE=Rock
TTITLE0=Bob Dorough And Friends / Schoolhouse Rocky (Original Theme Mu
TTITLE0=sic)
TTITLE1=Deluxx Folk Implosion / I'm Just A Bill
TTITLE2=Blind Melon / Three Is A Magic Number
TTITLE3=Better Than Ezra / Conjunction Junction
TTITLE4=Goodness / Electricity Electricity
TTITLE5=Pavement / No More Kings
TTITLE6=Ween / The Shot Heard 'Round The World
TTITLE7=Lemonheads / My Hero Zero
TTITLE8=Biz Markie / The Energy Blues
TTITLE9=Chavez / Little Twelvetoes
TTITLE10=Moby / Verb That's What's Happening
TTITLE11=Man Or Astro-Man / Interplanet Janet
TTITLE12=Buffalo Tom / Lolly Lolly Lolly Get Your Adverbs Here
TTITLE13=Daniel Johnston / Unpack Your Adjectives
TTITLE14=Skee-Lo / The Tale Of Mr. Morton
EXTD=YEAR: 1996
EXTT0=Bob Dorough & Friends
EXTT1=Deluxx Folk Implosion
EXTT2=Blind Melon
EXTT3=Better Than Ezra
EXTT4=Goodness
EXTT5=Pavement
EXTT6=Ween
EXTT7=The Lemonheads
EXTT8=Biz Markie
EXTT9=Chavez
EXTT10=Moby
EXTT11=Man Or Astro-Man?
EXTT12=Buffalo Tom
EXTT13=Daniel Johnson
EXTT14=Skee-Lo
PLAYORDER=
.
